<?xml version="1.0" encoding="UTF-8" standalone="no"?>
<!DOCTYPE svg PUBLIC "-//W3C//DTD SVG 1.1//EN" "http://www.w3.org/Graphics/SVG/1.1/DTD/svg11.dtd">
<svg width="100%" height="100%" viewBox="0 0 613 791" version="1.1" xmlns="http://www.w3.org/2000/svg" xmlns:xlink="http://www.w3.org/1999/xlink" xml:space="preserve" xmlns:serif="http://www.serif.com/" style="fill-rule:evenodd;clip-rule:evenodd;stroke-linejoin:round;stroke-miterlimit:2;">
    <g id="Cover">
        <rect x="0" y="0" width="612.284" height="790.866" style="fill:white;"/>
        <g id="Cover:-Full-cover" serif:id="Cover: Full cover">
            <g transform="matrix(1,0,0,1,151.052,166.797)">
                <g id="Graphic_27">
                    <g>
                        <g transform="matrix(52,0,0,52,0,0)">
                            <path d="M0.074,-0.714L0.25,-0.714L0.447,-0.155L0.449,-0.155L0.641,-0.714L0.815,-0.714L0.815,-0L0.696,-0L0.696,-0.551L0.694,-0.551L0.496,-0L0.393,-0L0.195,-0.551L0.193,-0.551L0.193,-0L0.074,-0L0.074,-0.714Z" style="fill:rgb(41,49,49);fill-rule:nonzero;"/>
                        </g>
                        <g transform="matrix(52,0,0,52,46.228,0)">
                            <path d="M0.493,-0.115C0.493,-0.101 0.495,-0.091 0.499,-0.085C0.502,-0.079 0.509,-0.076 0.52,-0.076L0.532,-0.076C0.537,-0.076 0.542,-0.077 0.548,-0.078L0.548,0.001C0.544,0.002 0.539,0.004 0.533,0.006C0.526,0.007 0.52,0.009 0.513,0.01C0.506,0.011 0.5,0.012 0.493,0.013C0.486,0.014 0.481,0.014 0.476,0.014C0.453,0.014 0.433,0.009 0.418,-0C0.403,-0.009 0.393,-0.026 0.388,-0.049C0.365,-0.027 0.337,-0.011 0.305,-0.001C0.272,0.009 0.24,0.014 0.209,0.014C0.186,0.014 0.163,0.011 0.142,0.005C0.121,-0.002 0.102,-0.011 0.086,-0.024C0.069,-0.036 0.056,-0.052 0.047,-0.071C0.037,-0.09 0.032,-0.112 0.032,-0.137C0.032,-0.169 0.038,-0.195 0.05,-0.215C0.061,-0.235 0.077,-0.251 0.096,-0.262C0.115,-0.273 0.136,-0.282 0.16,-0.287C0.183,-0.292 0.207,-0.295 0.231,-0.298C0.252,-0.302 0.271,-0.305 0.29,-0.307C0.309,-0.308 0.325,-0.311 0.34,-0.315C0.354,-0.319 0.365,-0.325 0.374,-0.334C0.382,-0.342 0.386,-0.354 0.386,-0.371C0.386,-0.386 0.383,-0.398 0.376,-0.407C0.369,-0.416 0.36,-0.424 0.35,-0.429C0.339,-0.434 0.328,-0.437 0.315,-0.439C0.302,-0.44 0.29,-0.441 0.279,-0.441C0.247,-0.441 0.221,-0.434 0.2,-0.421C0.179,-0.408 0.168,-0.387 0.165,-0.359L0.051,-0.359C0.053,-0.392 0.061,-0.42 0.075,-0.442C0.089,-0.464 0.107,-0.482 0.129,-0.495C0.15,-0.508 0.175,-0.518 0.202,-0.523C0.229,-0.528 0.257,-0.531 0.286,-0.531C0.311,-0.531 0.336,-0.528 0.361,-0.523C0.386,-0.518 0.408,-0.509 0.428,-0.497C0.447,-0.485 0.463,-0.47 0.475,-0.451C0.487,-0.432 0.493,-0.408 0.493,-0.381L0.493,-0.115ZM0.379,-0.259C0.362,-0.248 0.34,-0.241 0.315,-0.239C0.29,-0.236 0.264,-0.233 0.239,-0.228C0.227,-0.226 0.215,-0.223 0.204,-0.22C0.193,-0.216 0.183,-0.211 0.174,-0.205C0.165,-0.198 0.159,-0.19 0.154,-0.18C0.149,-0.169 0.146,-0.157 0.146,-0.142C0.146,-0.129 0.15,-0.119 0.157,-0.11C0.164,-0.101 0.173,-0.094 0.184,-0.09C0.194,-0.085 0.205,-0.081 0.218,-0.079C0.23,-0.077 0.241,-0.076 0.251,-0.076C0.264,-0.076 0.277,-0.078 0.292,-0.081C0.307,-0.084 0.321,-0.09 0.334,-0.098C0.346,-0.106 0.357,-0.116 0.366,-0.129C0.375,-0.141 0.379,-0.156 0.379,-0.174L0.379,-0.259Z" style="fill:rgb(41,49,49);fill-rule:nonzero;"/>
                        </g>
                        <g transform="matrix(52,0,0,52,75.14,0)">
                            <path d="M0.063,-0.714L0.177,-0.714L0.177,-0.606L0.063,-0.606L0.063,-0.714ZM0.063,-0.517L0.177,-0.517L0.177,-0L0.063,-0L0.063,-0.517Z" style="fill:rgb(41,49,49);fill-rule:nonzero;"/>
                        </g>
                        <g transform="matrix(52,0,0,52,87.672,0)">
                            <path d="M0.06,-0.517L0.168,-0.517L0.168,-0.441L0.17,-0.439C0.187,-0.468 0.21,-0.49 0.238,-0.507C0.266,-0.523 0.297,-0.531 0.331,-0.531C0.388,-0.531 0.432,-0.516 0.465,-0.487C0.498,-0.458 0.514,-0.414 0.514,-0.355L0.514,-0L0.4,-0L0.4,-0.325C0.399,-0.366 0.39,-0.395 0.374,-0.414C0.358,-0.432 0.333,-0.441 0.299,-0.441C0.28,-0.441 0.262,-0.438 0.247,-0.431C0.232,-0.424 0.219,-0.414 0.208,-0.402C0.197,-0.389 0.189,-0.375 0.183,-0.358C0.177,-0.341 0.174,-0.324 0.174,-0.305L0.174,-0L0.06,-0L0.06,-0.517Z" style="fill:rgb(41,49,49);fill-rule:nonzero;"/>
                        </g>
                        <g transform="matrix(52,0,0,52,117.52,0)">
                            <path d="M0.008,-0.517L0.094,-0.517L0.094,-0.672L0.208,-0.672L0.208,-0.517L0.311,-0.517L0.311,-0.432L0.208,-0.432L0.208,-0.156C0.208,-0.144 0.209,-0.134 0.21,-0.125C0.211,-0.116 0.213,-0.109 0.217,-0.103C0.22,-0.097 0.226,-0.092 0.233,-0.09C0.24,-0.087 0.25,-0.085 0.263,-0.085C0.271,-0.085 0.279,-0.085 0.287,-0.086C0.295,-0.086 0.303,-0.087 0.311,-0.089L0.311,-0.001C0.298,0 0.286,0.002 0.274,0.003C0.262,0.004 0.25,0.005 0.237,0.005C0.207,0.005 0.183,0.002 0.165,-0.004C0.146,-0.009 0.132,-0.018 0.122,-0.029C0.111,-0.04 0.104,-0.053 0.101,-0.07C0.097,-0.087 0.095,-0.106 0.094,-0.127L0.094,-0.432L0.008,-0.432L0.008,-0.517Z" style="fill:rgb(41,49,49);fill-rule:nonzero;"/>
                        </g>
                        <g transform="matrix(52,0,0,52,134.836,0)">
                            <path d="M0.415,-0.304C0.414,-0.322 0.41,-0.339 0.404,-0.356C0.397,-0.373 0.389,-0.387 0.378,-0.4C0.367,-0.412 0.353,-0.422 0.338,-0.43C0.322,-0.437 0.304,-0.441 0.285,-0.441C0.265,-0.441 0.247,-0.438 0.231,-0.431C0.214,-0.424 0.2,-0.414 0.189,-0.402C0.177,-0.389 0.168,-0.375 0.161,-0.358C0.154,-0.341 0.15,-0.323 0.149,-0.304L0.415,-0.304ZM0.149,-0.229C0.149,-0.209 0.152,-0.19 0.158,-0.171C0.163,-0.152 0.172,-0.136 0.183,-0.122C0.194,-0.108 0.209,-0.097 0.226,-0.089C0.243,-0.08 0.264,-0.076 0.288,-0.076C0.321,-0.076 0.348,-0.083 0.369,-0.098C0.389,-0.112 0.404,-0.133 0.414,-0.162L0.522,-0.162C0.516,-0.134 0.506,-0.109 0.491,-0.087C0.476,-0.065 0.459,-0.047 0.438,-0.032C0.417,-0.017 0.394,-0.005 0.369,0.003C0.343,0.01 0.316,0.014 0.288,0.014C0.247,0.014 0.211,0.007 0.18,-0.006C0.149,-0.019 0.122,-0.038 0.101,-0.062C0.079,-0.086 0.063,-0.115 0.052,-0.148C0.041,-0.181 0.035,-0.218 0.035,-0.258C0.035,-0.295 0.041,-0.329 0.053,-0.363C0.064,-0.396 0.081,-0.425 0.103,-0.45C0.124,-0.474 0.15,-0.494 0.181,-0.509C0.212,-0.524 0.246,-0.531 0.285,-0.531C0.326,-0.531 0.362,-0.523 0.395,-0.506C0.427,-0.489 0.454,-0.466 0.475,-0.438C0.496,-0.41 0.512,-0.378 0.522,-0.342C0.531,-0.305 0.534,-0.268 0.529,-0.229L0.149,-0.229Z" style="fill:rgb(41,49,49);fill-rule:nonzero;"/>
                        </g>
                        <g transform="matrix(52,0,0,52,163.748,0)">
                            <path d="M0.06,-0.517L0.168,-0.517L0.168,-0.441L0.17,-0.439C0.187,-0.468 0.21,-0.49 0.238,-0.507C0.266,-0.523 0.297,-0.531 0.331,-0.531C0.388,-0.531 0.432,-0.516 0.465,-0.487C0.498,-0.458 0.514,-0.414 0.514,-0.355L0.514,-0L0.4,-0L0.4,-0.325C0.399,-0.366 0.39,-0.395 0.374,-0.414C0.358,-0.432 0.333,-0.441 0.299,-0.441C0.28,-0.441 0.262,-0.438 0.247,-0.431C0.232,-0.424 0.219,-0.414 0.208,-0.402C0.197,-0.389 0.189,-0.375 0.183,-0.358C0.177,-0.341 0.174,-0.324 0.174,-0.305L0.174,-0L0.06,-0L0.06,-0.517Z" style="fill:rgb(41,49,49);fill-rule:nonzero;"/>
                        </g>
                        <g transform="matrix(52,0,0,52,193.596,0)">
                            <path d="M0.493,-0.115C0.493,-0.101 0.495,-0.091 0.499,-0.085C0.502,-0.079 0.509,-0.076 0.52,-0.076L0.532,-0.076C0.537,-0.076 0.542,-0.077 0.548,-0.078L0.548,0.001C0.544,0.002 0.539,0.004 0.533,0.006C0.526,0.007 0.52,0.009 0.513,0.01C0.506,0.011 0.5,0.012 0.493,0.013C0.486,0.014 0.481,0.014 0.476,0.014C0.453,0.014 0.433,0.009 0.418,-0C0.403,-0.009 0.393,-0.026 0.388,-0.049C0.365,-0.027 0.337,-0.011 0.305,-0.001C0.272,0.009 0.24,0.014 0.209,0.014C0.186,0.014 0.163,0.011 0.142,0.005C0.121,-0.002 0.102,-0.011 0.086,-0.024C0.069,-0.036 0.056,-0.052 0.047,-0.071C0.037,-0.09 0.032,-0.112 0.032,-0.137C0.032,-0.169 0.038,-0.195 0.05,-0.215C0.061,-0.235 0.077,-0.251 0.096,-0.262C0.115,-0.273 0.136,-0.282 0.16,-0.287C0.183,-0.292 0.207,-0.295 0.231,-0.298C0.252,-0.302 0.271,-0.305 0.29,-0.307C0.309,-0.308 0.325,-0.311 0.34,-0.315C0.354,-0.319 0.365,-0.325 0.374,-0.334C0.382,-0.342 0.386,-0.354 0.386,-0.371C0.386,-0.386 0.383,-0.398 0.376,-0.407C0.369,-0.416 0.36,-0.424 0.35,-0.429C0.339,-0.434 0.328,-0.437 0.315,-0.439C0.302,-0.44 0.29,-0.441 0.279,-0.441C0.247,-0.441 0.221,-0.434 0.2,-0.421C0.179,-0.408 0.168,-0.387 0.165,-0.359L0.051,-0.359C0.053,-0.392 0.061,-0.42 0.075,-0.442C0.089,-0.464 0.107,-0.482 0.129,-0.495C0.15,-0.508 0.175,-0.518 0.202,-0.523C0.229,-0.528 0.257,-0.531 0.286,-0.531C0.311,-0.531 0.336,-0.528 0.361,-0.523C0.386,-0.518 0.408,-0.509 0.428,-0.497C0.447,-0.485 0.463,-0.47 0.475,-0.451C0.487,-0.432 0.493,-0.408 0.493,-0.381L0.493,-0.115ZM0.379,-0.259C0.362,-0.248 0.34,-0.241 0.315,-0.239C0.29,-0.236 0.264,-0.233 0.239,-0.228C0.227,-0.226 0.215,-0.223 0.204,-0.22C0.193,-0.216 0.183,-0.211 0.174,-0.205C0.165,-0.198 0.159,-0.19 0.154,-0.18C0.149,-0.169 0.146,-0.157 0.146,-0.142C0.146,-0.129 0.15,-0.119 0.157,-0.11C0.164,-0.101 0.173,-0.094 0.184,-0.09C0.194,-0.085 0.205,-0.081 0.218,-0.079C0.23,-0.077 0.241,-0.076 0.251,-0.076C0.264,-0.076 0.277,-0.078 0.292,-0.081C0.307,-0.084 0.321,-0.09 0.334,-0.098C0.346,-0.106 0.357,-0.116 0.366,-0.129C0.375,-0.141 0.379,-0.156 0.379,-0.174L0.379,-0.259Z" style="fill:rgb(41,49,49);fill-rule:nonzero;"/>
                        </g>
                        <g transform="matrix(52,0,0,52,222.508,0)">
                            <path d="M0.06,-0.517L0.168,-0.517L0.168,-0.441L0.17,-0.439C0.187,-0.468 0.21,-0.49 0.238,-0.507C0.266,-0.523 0.297,-0.531 0.331,-0.531C0.388,-0.531 0.432,-0.516 0.465,-0.487C0.498,-0.458 0.514,-0.414 0.514,-0.355L0.514,-0L0.4,-0L0.4,-0.325C0.399,-0.366 0.39,-0.395 0.374,-0.414C0.358,-0.432 0.333,-0.441 0.299,-0.441C0.28,-0.441 0.262,-0.438 0.247,-0.431C0.232,-0.424 0.219,-0.414 0.208,-0.402C0.197,-0.389 0.189,-0.375 0.183,-0.358C0.177,-0.341 0.174,-0.324 0.174,-0.305L0.174,-0L0.06,-0L0.06,-0.517Z" style="fill:rgb(41,49,49);fill-rule:nonzero;"/>
                        </g>
                        <g transform="matrix(52,0,0,52,252.356,0)">
                            <path d="M0.409,-0.344C0.404,-0.376 0.392,-0.4 0.371,-0.417C0.349,-0.433 0.323,-0.441 0.291,-0.441C0.276,-0.441 0.261,-0.439 0.244,-0.434C0.227,-0.428 0.212,-0.419 0.198,-0.406C0.184,-0.392 0.172,-0.373 0.163,-0.349C0.154,-0.324 0.149,-0.292 0.149,-0.253C0.149,-0.232 0.152,-0.21 0.157,-0.189C0.162,-0.168 0.169,-0.149 0.181,-0.132C0.192,-0.115 0.206,-0.102 0.223,-0.092C0.24,-0.081 0.261,-0.076 0.286,-0.076C0.319,-0.076 0.347,-0.086 0.369,-0.107C0.39,-0.128 0.404,-0.157 0.409,-0.194L0.523,-0.194C0.512,-0.127 0.487,-0.075 0.447,-0.04C0.406,-0.004 0.353,0.014 0.286,0.014C0.245,0.014 0.21,0.007 0.179,-0.007C0.148,-0.02 0.121,-0.039 0.1,-0.063C0.079,-0.086 0.063,-0.114 0.052,-0.147C0.041,-0.18 0.035,-0.215 0.035,-0.253C0.035,-0.292 0.04,-0.328 0.051,-0.362C0.062,-0.396 0.078,-0.426 0.099,-0.451C0.12,-0.475 0.147,-0.495 0.179,-0.51C0.21,-0.524 0.247,-0.531 0.29,-0.531C0.32,-0.531 0.349,-0.527 0.376,-0.52C0.403,-0.512 0.427,-0.5 0.448,-0.485C0.468,-0.47 0.486,-0.45 0.499,-0.427C0.512,-0.404 0.52,-0.376 0.523,-0.344L0.409,-0.344Z" style="fill:rgb(41,49,49);fill-rule:nonzero;"/>
                        </g>
                        <g transform="matrix(52,0,0,52,281.268,0)">
                            <path d="M0.415,-0.304C0.414,-0.322 0.41,-0.339 0.404,-0.356C0.397,-0.373 0.389,-0.387 0.378,-0.4C0.367,-0.412 0.353,-0.422 0.338,-0.43C0.322,-0.437 0.304,-0.441 0.285,-0.441C0.265,-0.441 0.247,-0.438 0.231,-0.431C0.214,-0.424 0.2,-0.414 0.189,-0.402C0.177,-0.389 0.168,-0.375 0.161,-0.358C0.154,-0.341 0.15,-0.323 0.149,-0.304L0.415,-0.304ZM0.149,-0.229C0.149,-0.209 0.152,-0.19 0.158,-0.171C0.163,-0.152 0.172,-0.136 0.183,-0.122C0.194,-0.108 0.209,-0.097 0.226,-0.089C0.243,-0.08 0.264,-0.076 0.288,-0.076C0.321,-0.076 0.348,-0.083 0.369,-0.098C0.389,-0.112 0.404,-0.133 0.414,-0.162L0.522,-0.162C0.516,-0.134 0.506,-0.109 0.491,-0.087C0.476,-0.065 0.459,-0.047 0.438,-0.032C0.417,-0.017 0.394,-0.005 0.369,0.003C0.343,0.01 0.316,0.014 0.288,0.014C0.247,0.014 0.211,0.007 0.18,-0.006C0.149,-0.019 0.122,-0.038 0.101,-0.062C0.079,-0.086 0.063,-0.115 0.052,-0.148C0.041,-0.181 0.035,-0.218 0.035,-0.258C0.035,-0.295 0.041,-0.329 0.053,-0.363C0.064,-0.396 0.081,-0.425 0.103,-0.45C0.124,-0.474 0.15,-0.494 0.181,-0.509C0.212,-0.524 0.246,-0.531 0.285,-0.531C0.326,-0.531 0.362,-0.523 0.395,-0.506C0.427,-0.489 0.454,-0.466 0.475,-0.438C0.496,-0.41 0.512,-0.378 0.522,-0.342C0.531,-0.305 0.534,-0.268 0.529,-0.229L0.149,-0.229Z" style="fill:rgb(41,49,49);fill-rule:nonzero;"/>
                        </g>
                    </g>
                </g>
            </g>
            <g transform="matrix(1,0,0,1,100.726,208.591)">
                <g id="Graphic_26">
                    <g>
                        <g transform="matrix(24,0,0,24,0,0)">
                            <path d="M0.046,-0.094C0.097,-0.032 0.18,0.012 0.29,0.012C0.47,0.012 0.527,-0.091 0.527,-0.177C0.527,-0.312 0.409,-0.346 0.301,-0.377C0.21,-0.401 0.127,-0.424 0.127,-0.503C0.127,-0.575 0.194,-0.626 0.283,-0.626C0.358,-0.626 0.426,-0.6 0.474,-0.542L0.512,-0.584C0.46,-0.643 0.386,-0.678 0.286,-0.678C0.165,-0.678 0.067,-0.609 0.067,-0.5C0.067,-0.377 0.179,-0.347 0.284,-0.318C0.378,-0.293 0.467,-0.267 0.467,-0.173C0.467,-0.116 0.428,-0.04 0.291,-0.04C0.196,-0.04 0.126,-0.087 0.083,-0.137L0.046,-0.094Z" style="fill:rgb(126,142,151);fill-rule:nonzero;"/>
                        </g>
                        <g transform="matrix(24,0,0,24,13.872,0)">
                            <path d="M0.253,-0L0.311,-0L0.311,-0.615L0.529,-0.615L0.529,-0.667L0.035,-0.667L0.035,-0.615L0.253,-0.615L0.253,-0Z" style="fill:rgb(126,142,151);fill-rule:nonzero;"/>
                        </g>
                        <g transform="matrix(24,0,0,24,27.408,0)">
                            <path d="M0.474,-0L0.543,-0L0.35,-0.28C0.449,-0.284 0.535,-0.351 0.535,-0.472C0.535,-0.594 0.447,-0.667 0.332,-0.667L0.083,-0.667L0.083,-0L0.14,-0L0.14,-0.276L0.287,-0.276L0.474,-0ZM0.475,-0.472C0.475,-0.388 0.415,-0.328 0.327,-0.328L0.14,-0.328L0.14,-0.615L0.327,-0.615C0.415,-0.615 0.475,-0.556 0.475,-0.472Z" style="fill:rgb(126,142,151);fill-rule:nonzero;"/>
                        </g>
                        <g transform="matrix(24,0,0,24,41.664,0)">
                            <path d="M0.083,-0L0.506,-0L0.506,-0.052L0.14,-0.052L0.14,-0.316L0.499,-0.316L0.499,-0.368L0.14,-0.368L0.14,-0.615L0.506,-0.615L0.506,-0.667L0.083,-0.667L0.083,-0Z" style="fill:rgb(126,142,151);fill-rule:nonzero;"/>
                        </g>
                        <g transform="matrix(24,0,0,24,55.2,0)">
                            <path d="M0.568,-0L0.632,-0L0.359,-0.667L0.288,-0.667L0.015,-0L0.079,-0L0.146,-0.164L0.501,-0.164L0.568,-0ZM0.323,-0.611L0.483,-0.216L0.164,-0.216L0.323,-0.611Z" style="fill:rgb(126,142,151);fill-rule:nonzero;"/>
                        </g>
                        <g transform="matrix(24,0,0,24,70.728,0)">
                            <path d="M0.649,-0L0.707,-0L0.707,-0.667L0.621,-0.667L0.395,-0.114L0.168,-0.667L0.083,-0.667L0.083,-0L0.14,-0L0.14,-0.592L0.384,-0L0.406,-0L0.649,-0.592L0.649,-0Z" style="fill:rgb(126,142,151);fill-rule:nonzero;"/>
                        </g>
                        <g transform="matrix(24,0,0,24,89.688,0)">
                            <path d="M0.083,-0L0.463,-0L0.463,-0.052L0.14,-0.052L0.14,-0.667L0.083,-0.667L0.083,-0Z" style="fill:rgb(126,142,151);fill-rule:nonzero;"/>
                        </g>
                        <g transform="matrix(24,0,0,24,101.784,0)">
                            <rect x="0.083" y="-0.667" width="0.057" height="0.667" style="fill:rgb(126,142,151);fill-rule:nonzero;"/>
                        </g>
                        <g transform="matrix(24,0,0,24,107.136,0)">
                            <path d="M0.56,-0L0.616,-0L0.616,-0.667L0.559,-0.667L0.559,-0.099L0.141,-0.667L0.083,-0.667L0.083,-0L0.14,-0L0.14,-0.576L0.56,-0Z" style="fill:rgb(126,142,151);fill-rule:nonzero;"/>
                        </g>
                        <g transform="matrix(24,0,0,24,123.912,0)">
                            <path d="M0.083,-0L0.506,-0L0.506,-0.052L0.14,-0.052L0.14,-0.316L0.499,-0.316L0.499,-0.368L0.14,-0.368L0.14,-0.615L0.506,-0.615L0.506,-0.667L0.083,-0.667L0.083,-0Z" style="fill:rgb(126,142,151);fill-rule:nonzero;"/>
                        </g>
                        <g transform="matrix(24,0,0,24,143.664,0)">
                            <path d="M0.014,-0.07C0.058,-0.013 0.113,0.012 0.185,0.012C0.296,0.012 0.387,-0.054 0.387,-0.193L0.387,-0.667L0.329,-0.667L0.329,-0.193C0.329,-0.103 0.273,-0.04 0.182,-0.04C0.119,-0.04 0.079,-0.074 0.049,-0.113L0.014,-0.07Z" style="fill:rgb(126,142,151);fill-rule:nonzero;"/>
                        </g>
                        <g transform="matrix(24,0,0,24,154.392,0)">
                            <path d="M0.568,-0L0.632,-0L0.359,-0.667L0.288,-0.667L0.015,-0L0.079,-0L0.146,-0.164L0.501,-0.164L0.568,-0ZM0.323,-0.611L0.483,-0.216L0.164,-0.216L0.323,-0.611Z" style="fill:rgb(126,142,151);fill-rule:nonzero;"/>
                        </g>
                        <g transform="matrix(24,0,0,24,168.552,0)">
                            <path d="M0.288,-0L0.359,-0L0.632,-0.667L0.566,-0.667L0.323,-0.064L0.081,-0.667L0.015,-0.667L0.288,-0Z" style="fill:rgb(126,142,151);fill-rule:nonzero;"/>
                        </g>
                        <g transform="matrix(24,0,0,24,182.712,0)">
                            <path d="M0.568,-0L0.632,-0L0.359,-0.667L0.288,-0.667L0.015,-0L0.079,-0L0.146,-0.164L0.501,-0.164L0.568,-0ZM0.323,-0.611L0.483,-0.216L0.164,-0.216L0.323,-0.611Z" style="fill:rgb(126,142,151);fill-rule:nonzero;"/>
                        </g>
                        <g transform="matrix(24,0,0,24,197.832,0)">
                            <path d="M0.046,-0.094C0.097,-0.032 0.18,0.012 0.29,0.012C0.47,0.012 0.527,-0.091 0.527,-0.177C0.527,-0.312 0.409,-0.346 0.301,-0.377C0.21,-0.401 0.127,-0.424 0.127,-0.503C0.127,-0.575 0.194,-0.626 0.283,-0.626C0.358,-0.626 0.426,-0.6 0.474,-0.542L0.512,-0.584C0.46,-0.643 0.386,-0.678 0.286,-0.678C0.165,-0.678 0.067,-0.609 0.067,-0.5C0.067,-0.377 0.179,-0.347 0.284,-0.318C0.378,-0.293 0.467,-0.267 0.467,-0.173C0.467,-0.116 0.428,-0.04 0.291,-0.04C0.196,-0.04 0.126,-0.087 0.083,-0.137L0.046,-0.094Z" style="fill:rgb(126,142,151);fill-rule:nonzero;"/>
                        </g>
                        <g transform="matrix(24,0,0,24,211.776,0)">
                            <path d="M0.394,0.012C0.502,0.012 0.58,-0.034 0.639,-0.107L0.591,-0.137C0.549,-0.079 0.476,-0.04 0.394,-0.04C0.239,-0.04 0.118,-0.161 0.118,-0.333C0.118,-0.507 0.239,-0.626 0.394,-0.626C0.476,-0.626 0.549,-0.587 0.591,-0.529L0.639,-0.56C0.582,-0.631 0.502,-0.678 0.394,-0.678C0.207,-0.678 0.058,-0.538 0.058,-0.333C0.058,-0.128 0.207,0.012 0.394,0.012Z" style="fill:rgb(126,142,151);fill-rule:nonzero;"/>
                        </g>
                        <g transform="matrix(24,0,0,24,227.904,0)">
                            <path d="M0.474,-0L0.543,-0L0.35,-0.28C0.449,-0.284 0.535,-0.351 0.535,-0.472C0.535,-0.594 0.447,-0.667 0.332,-0.667L0.083,-0.667L0.083,-0L0.14,-0L0.14,-0.276L0.287,-0.276L0.474,-0ZM0.475,-0.472C0.475,-0.388 0.415,-0.328 0.327,-0.328L0.14,-0.328L0.14,-0.615L0.327,-0.615C0.415,-0.615 0.475,-0.556 0.475,-0.472Z" style="fill:rgb(126,142,151);fill-rule:nonzero;"/>
                        </g>
                        <g transform="matrix(24,0,0,24,242.16,0)">
                            <rect x="0.083" y="-0.667" width="0.057" height="0.667" style="fill:rgb(126,142,151);fill-rule:nonzero;"/>
                        </g>
                        <g transform="matrix(24,0,0,24,247.512,0)">
                            <path d="M0.083,-0L0.14,-0L0.14,-0.277L0.333,-0.277C0.46,-0.277 0.534,-0.367 0.534,-0.472C0.534,-0.577 0.461,-0.667 0.333,-0.667L0.083,-0.667L0.083,-0ZM0.474,-0.472C0.474,-0.388 0.415,-0.329 0.327,-0.329L0.14,-0.329L0.14,-0.615L0.327,-0.615C0.415,-0.615 0.474,-0.556 0.474,-0.472Z" style="fill:rgb(126,142,151);fill-rule:nonzero;"/>
                        </g>
                        <g transform="matrix(24,0,0,24,261.216,0)">
                            <path d="M0.253,-0L0.311,-0L0.311,-0.615L0.529,-0.615L0.529,-0.667L0.035,-0.667L0.035,-0.615L0.253,-0.615L0.253,-0Z" style="fill:rgb(126,142,151);fill-rule:nonzero;"/>
                        </g>
                        <g transform="matrix(24,0,0,24,280.968,0)">
                            <path d="M0.594,-0L0.658,-0L0.848,-0.667L0.784,-0.667L0.623,-0.08L0.46,-0.667L0.408,-0.667L0.244,-0.08L0.083,-0.667L0.019,-0.667L0.21,-0L0.274,-0L0.434,-0.573L0.594,-0Z" style="fill:rgb(126,142,151);fill-rule:nonzero;"/>
                        </g>
                        <g transform="matrix(24,0,0,24,301.296,0)">
                            <path d="M0.058,-0.333C0.058,-0.138 0.186,0.012 0.382,0.012C0.577,0.012 0.706,-0.138 0.706,-0.333C0.706,-0.528 0.577,-0.678 0.382,-0.678C0.186,-0.678 0.058,-0.528 0.058,-0.333ZM0.646,-0.333C0.646,-0.165 0.542,-0.04 0.382,-0.04C0.22,-0.04 0.118,-0.165 0.118,-0.333C0.118,-0.503 0.22,-0.626 0.382,-0.626C0.542,-0.626 0.646,-0.503 0.646,-0.333Z" style="fill:rgb(126,142,151);fill-rule:nonzero;"/>
                        </g>
                        <g transform="matrix(24,0,0,24,319.632,0)">
                            <path d="M0.474,-0L0.543,-0L0.35,-0.28C0.449,-0.284 0.535,-0.351 0.535,-0.472C0.535,-0.594 0.447,-0.667 0.332,-0.667L0.083,-0.667L0.083,-0L0.14,-0L0.14,-0.276L0.287,-0.276L0.474,-0ZM0.475,-0.472C0.475,-0.388 0.415,-0.328 0.327,-0.328L0.14,-0.328L0.14,-0.615L0.327,-0.615C0.415,-0.615 0.475,-0.556 0.475,-0.472Z" style="fill:rgb(126,142,151);fill-rule:nonzero;"/>
                        </g>
                        <g transform="matrix(24,0,0,24,333.888,0)">
                            <path d="M0.489,-0L0.562,-0L0.251,-0.349L0.535,-0.667L0.462,-0.667L0.14,-0.302L0.14,-0.667L0.083,-0.667L0.083,-0L0.14,-0L0.14,-0.233L0.214,-0.314L0.489,-0Z" style="fill:rgb(126,142,151);fill-rule:nonzero;"/>
                        </g>
                        <g transform="matrix(24,0,0,24,347.952,0)">
                            <path d="M0.083,-0L0.14,-0L0.14,-0.316L0.499,-0.316L0.499,-0.368L0.14,-0.368L0.14,-0.615L0.506,-0.615L0.506,-0.667L0.083,-0.667L0.083,-0Z" style="fill:rgb(126,142,151);fill-rule:nonzero;"/>
                        </g>
                        <g transform="matrix(24,0,0,24,360.96,0)">
                            <path d="M0.083,-0L0.463,-0L0.463,-0.052L0.14,-0.052L0.14,-0.667L0.083,-0.667L0.083,-0Z" style="fill:rgb(126,142,151);fill-rule:nonzero;"/>
                        </g>
                        <g transform="matrix(24,0,0,24,372.168,0)">
                            <path d="M0.058,-0.333C0.058,-0.138 0.186,0.012 0.382,0.012C0.577,0.012 0.706,-0.138 0.706,-0.333C0.706,-0.528 0.577,-0.678 0.382,-0.678C0.186,-0.678 0.058,-0.528 0.058,-0.333ZM0.646,-0.333C0.646,-0.165 0.542,-0.04 0.382,-0.04C0.22,-0.04 0.118,-0.165 0.118,-0.333C0.118,-0.503 0.22,-0.626 0.382,-0.626C0.542,-0.626 0.646,-0.503 0.646,-0.333Z" style="fill:rgb(126,142,151);fill-rule:nonzero;"/>
                        </g>
                        <g transform="matrix(24,0,0,24,390.024,0)">
                            <path d="M0.594,-0L0.658,-0L0.848,-0.667L0.784,-0.667L0.623,-0.08L0.46,-0.667L0.408,-0.667L0.244,-0.08L0.083,-0.667L0.019,-0.667L0.21,-0L0.274,-0L0.434,-0.573L0.594,-0Z" style="fill:rgb(126,142,151);fill-rule:nonzero;"/>
                        </g>
                    </g>
                </g>
            </g>
            <g transform="matrix(1,0,0,1,177.913,645.63)">
                <g id="Graphic_25">
                    <g>
                        <g transform="matrix(1,0,0,1,0.12,29)">
                            <g transform="matrix(32,0,0,32,0,0)">
                                <path d="M0.014,-0.07C0.058,-0.013 0.113,0.012 0.185,0.012C0.296,0.012 0.387,-0.054 0.387,-0.193L0.387,-0.667L0.329,-0.667L0.329,-0.193C0.329,-0.103 0.273,-0.04 0.182,-0.04C0.119,-0.04 0.079,-0.074 0.049,-0.113L0.014,-0.07Z" style="fill-rule:nonzero;"/>
                            </g>
                            <g transform="matrix(32,0,0,32,15.04,0)">
                                <path d="M0.407,-0L0.459,-0L0.459,-0.483L0.407,-0.483L0.407,-0.115C0.375,-0.072 0.312,-0.035 0.25,-0.035C0.18,-0.035 0.133,-0.061 0.133,-0.155L0.133,-0.483L0.081,-0.483L0.081,-0.143C0.081,-0.034 0.134,0.012 0.233,0.012C0.303,0.012 0.367,-0.027 0.407,-0.071L0.407,-0Z" style="fill-rule:nonzero;"/>
                            </g>
                            <g transform="matrix(32,0,0,32,32.32,0)">
                                <path d="M0.407,-0L0.459,-0L0.459,-0.34C0.459,-0.449 0.405,-0.495 0.307,-0.495C0.237,-0.495 0.168,-0.452 0.133,-0.41L0.133,-0.667L0.081,-0.667L0.081,-0L0.133,-0L0.133,-0.365C0.164,-0.409 0.228,-0.448 0.29,-0.448C0.36,-0.448 0.407,-0.422 0.407,-0.329L0.407,-0Z" style="fill-rule:nonzero;"/>
                            </g>
                            <g transform="matrix(32,0,0,32,49.6,0)">
                                <path d="M0.285,0.012C0.428,0.012 0.518,-0.101 0.518,-0.242C0.518,-0.383 0.428,-0.495 0.285,-0.495C0.144,-0.495 0.053,-0.383 0.053,-0.242C0.053,-0.101 0.144,0.012 0.285,0.012ZM0.285,-0.035C0.173,-0.035 0.109,-0.134 0.109,-0.242C0.109,-0.349 0.173,-0.448 0.285,-0.448C0.399,-0.448 0.462,-0.349 0.462,-0.242C0.462,-0.134 0.399,-0.035 0.285,-0.035Z" style="fill-rule:nonzero;"/>
                            </g>
                            <g transform="matrix(32,0,0,32,76.16,0)">
                                <path d="M0.288,-0L0.359,-0L0.632,-0.667L0.566,-0.667L0.323,-0.064L0.081,-0.667L0.015,-0.667L0.288,-0Z" style="fill-rule:nonzero;"/>
                            </g>
                            <g transform="matrix(32,0,0,32,94.944,0)">
                                <path d="M0.053,-0.242C0.053,-0.093 0.154,0.012 0.295,0.012C0.375,0.012 0.436,-0.016 0.484,-0.066L0.457,-0.1C0.416,-0.056 0.36,-0.033 0.299,-0.033C0.185,-0.033 0.115,-0.12 0.11,-0.225L0.514,-0.225L0.514,-0.239C0.514,-0.378 0.433,-0.495 0.286,-0.495C0.152,-0.495 0.053,-0.382 0.053,-0.242ZM0.285,-0.45C0.406,-0.45 0.46,-0.348 0.461,-0.266L0.11,-0.266C0.114,-0.35 0.171,-0.45 0.285,-0.45Z" style="fill-rule:nonzero;"/>
                            </g>
                            <g transform="matrix(32,0,0,32,113.088,0)">
                                <path d="M0.133,0.184L0.133,-0.078C0.172,-0.023 0.233,0.012 0.301,0.012C0.43,0.012 0.517,-0.088 0.517,-0.242C0.517,-0.397 0.43,-0.495 0.301,-0.495C0.229,-0.495 0.167,-0.456 0.133,-0.407L0.133,-0.483L0.081,-0.483L0.081,0.184L0.133,0.184ZM0.461,-0.242C0.461,-0.125 0.4,-0.035 0.292,-0.035C0.225,-0.035 0.161,-0.077 0.133,-0.123L0.133,-0.362C0.161,-0.408 0.225,-0.448 0.292,-0.448C0.4,-0.448 0.461,-0.359 0.461,-0.242Z" style="fill-rule:nonzero;"/>
                            </g>
                            <g transform="matrix(32,0,0,32,131.328,0)">
                                <path d="M0.039,-0.064C0.087,-0.011 0.147,0.012 0.225,0.012C0.346,0.012 0.406,-0.052 0.406,-0.13C0.406,-0.233 0.313,-0.256 0.23,-0.277C0.163,-0.294 0.101,-0.309 0.101,-0.364C0.101,-0.414 0.147,-0.451 0.222,-0.451C0.286,-0.451 0.338,-0.425 0.366,-0.387L0.395,-0.424C0.36,-0.463 0.305,-0.495 0.222,-0.495C0.113,-0.495 0.05,-0.435 0.05,-0.361C0.05,-0.267 0.139,-0.246 0.22,-0.226C0.289,-0.208 0.355,-0.19 0.355,-0.128C0.355,-0.072 0.307,-0.032 0.226,-0.032C0.158,-0.032 0.101,-0.064 0.07,-0.103L0.039,-0.064Z" style="fill-rule:nonzero;"/>
                            </g>
                            <g transform="matrix(32,0,0,32,146.016,0)">
                                <path d="M0.163,-0.568C0.183,-0.568 0.2,-0.585 0.2,-0.606C0.2,-0.626 0.183,-0.643 0.163,-0.643C0.143,-0.643 0.126,-0.626 0.126,-0.606C0.126,-0.585 0.143,-0.568 0.163,-0.568ZM0.367,-0.568C0.387,-0.568 0.405,-0.585 0.405,-0.606C0.405,-0.626 0.387,-0.643 0.367,-0.643C0.347,-0.643 0.33,-0.626 0.33,-0.606C0.33,-0.585 0.347,-0.568 0.367,-0.568ZM0.388,-0L0.44,-0L0.44,-0.34C0.44,-0.448 0.362,-0.495 0.264,-0.495C0.184,-0.495 0.128,-0.468 0.078,-0.414L0.107,-0.378C0.151,-0.428 0.198,-0.449 0.258,-0.449C0.33,-0.449 0.388,-0.41 0.388,-0.338L0.388,-0.24C0.346,-0.287 0.291,-0.309 0.224,-0.309C0.14,-0.309 0.055,-0.254 0.055,-0.149C0.055,-0.045 0.141,0.012 0.224,0.012C0.291,0.012 0.345,-0.01 0.388,-0.057L0.388,-0ZM0.388,-0.095C0.354,-0.051 0.3,-0.029 0.242,-0.029C0.162,-0.029 0.11,-0.08 0.11,-0.148C0.11,-0.217 0.162,-0.268 0.242,-0.268C0.3,-0.268 0.354,-0.245 0.388,-0.201L0.388,-0.095Z" style="fill-rule:nonzero;"/>
                            </g>
                            <g transform="matrix(32,0,0,32,162.688,0)">
                                <rect x="0.081" y="-0.667" width="0.052" height="0.667" style="fill-rule:nonzero;"/>
                            </g>
                            <g transform="matrix(32,0,0,32,169.536,0)">
                                <path d="M0.163,-0.568C0.183,-0.568 0.2,-0.585 0.2,-0.606C0.2,-0.626 0.183,-0.643 0.163,-0.643C0.143,-0.643 0.126,-0.626 0.126,-0.606C0.126,-0.585 0.143,-0.568 0.163,-0.568ZM0.367,-0.568C0.387,-0.568 0.405,-0.585 0.405,-0.606C0.405,-0.626 0.387,-0.643 0.367,-0.643C0.347,-0.643 0.33,-0.626 0.33,-0.606C0.33,-0.585 0.347,-0.568 0.367,-0.568ZM0.388,-0L0.44,-0L0.44,-0.34C0.44,-0.448 0.362,-0.495 0.264,-0.495C0.184,-0.495 0.128,-0.468 0.078,-0.414L0.107,-0.378C0.151,-0.428 0.198,-0.449 0.258,-0.449C0.33,-0.449 0.388,-0.41 0.388,-0.338L0.388,-0.24C0.346,-0.287 0.291,-0.309 0.224,-0.309C0.14,-0.309 0.055,-0.254 0.055,-0.149C0.055,-0.045 0.141,0.012 0.224,0.012C0.291,0.012 0.345,-0.01 0.388,-0.057L0.388,-0ZM0.388,-0.095C0.354,-0.051 0.3,-0.029 0.242,-0.029C0.162,-0.029 0.11,-0.08 0.11,-0.148C0.11,-0.217 0.162,-0.268 0.242,-0.268C0.3,-0.268 0.354,-0.245 0.388,-0.201L0.388,-0.095Z" style="fill-rule:nonzero;"/>
                            </g>
                            <g transform="matrix(32,0,0,32,186.208,0)">
                                <path d="M0.107,-0.565C0.129,-0.565 0.147,-0.583 0.147,-0.605C0.147,-0.627 0.129,-0.645 0.107,-0.645C0.086,-0.645 0.067,-0.627 0.067,-0.605C0.067,-0.583 0.086,-0.565 0.107,-0.565ZM0.081,-0L0.133,-0L0.133,-0.483L0.081,-0.483L0.081,-0Z" style="fill-rule:nonzero;"/>
                            </g>
                            <g transform="matrix(32,0,0,32,193.056,0)">
                                <path d="M0.407,-0L0.459,-0L0.459,-0.338C0.459,-0.447 0.405,-0.495 0.307,-0.495C0.237,-0.495 0.168,-0.452 0.133,-0.41L0.133,-0.483L0.081,-0.483L0.081,-0L0.133,-0L0.133,-0.365C0.164,-0.409 0.228,-0.448 0.29,-0.448C0.36,-0.448 0.407,-0.42 0.407,-0.327L0.407,-0Z" style="fill-rule:nonzero;"/>
                            </g>
                            <g transform="matrix(32,0,0,32,210.336,0)">
                                <path d="M0.053,-0.242C0.053,-0.093 0.154,0.012 0.295,0.012C0.375,0.012 0.436,-0.016 0.484,-0.066L0.457,-0.1C0.416,-0.056 0.36,-0.033 0.299,-0.033C0.185,-0.033 0.115,-0.12 0.11,-0.225L0.514,-0.225L0.514,-0.239C0.514,-0.378 0.433,-0.495 0.286,-0.495C0.152,-0.495 0.053,-0.382 0.053,-0.242ZM0.285,-0.45C0.406,-0.45 0.46,-0.348 0.461,-0.266L0.11,-0.266C0.114,-0.35 0.171,-0.45 0.285,-0.45Z" style="fill-rule:nonzero;"/>
                            </g>
                            <g transform="matrix(32,0,0,32,228.48,0)">
                                <path d="M0.407,-0L0.459,-0L0.459,-0.338C0.459,-0.447 0.405,-0.495 0.307,-0.495C0.237,-0.495 0.168,-0.452 0.133,-0.41L0.133,-0.483L0.081,-0.483L0.081,-0L0.133,-0L0.133,-0.365C0.164,-0.409 0.228,-0.448 0.29,-0.448C0.36,-0.448 0.407,-0.42 0.407,-0.327L0.407,-0Z" style="fill-rule:nonzero;"/>
                            </g>
                        </g>
                        <g transform="matrix(1,0,0,1,20.328,68)">
                            <g transform="matrix(32,0,0,32,0,0)">
                                <path d="M0.568,-0L0.632,-0L0.359,-0.667L0.288,-0.667L0.015,-0L0.079,-0L0.146,-0.164L0.501,-0.164L0.568,-0ZM0.323,-0.611L0.483,-0.216L0.164,-0.216L0.323,-0.611Z" style="fill-rule:nonzero;"/>
                            </g>
                            <g transform="matrix(32,0,0,32,20.704,0)">
                                <path d="M0.081,-0L0.133,-0L0.133,-0.352C0.155,-0.394 0.221,-0.438 0.27,-0.438C0.28,-0.438 0.287,-0.438 0.296,-0.436L0.296,-0.493C0.229,-0.493 0.174,-0.454 0.133,-0.4L0.133,-0.483L0.081,-0.483L0.081,-0Z" style="fill-rule:nonzero;"/>
                            </g>
                            <g transform="matrix(32,0,0,32,30.848,0)">
                                <path d="M0.186,0.012C0.226,0.012 0.249,-0 0.268,-0.018L0.248,-0.058C0.237,-0.046 0.217,-0.035 0.194,-0.035C0.16,-0.035 0.144,-0.062 0.144,-0.101L0.144,-0.437L0.242,-0.437L0.242,-0.483L0.144,-0.483L0.144,-0.615L0.091,-0.615L0.091,-0.483L0.011,-0.483L0.011,-0.437L0.091,-0.437L0.091,-0.093C0.091,-0.027 0.122,0.012 0.186,0.012Z" style="fill-rule:nonzero;"/>
                            </g>
                            <g transform="matrix(32,0,0,32,39.648,0)">
                                <path d="M0.053,-0.242C0.053,-0.093 0.154,0.012 0.295,0.012C0.375,0.012 0.436,-0.016 0.484,-0.066L0.457,-0.1C0.416,-0.056 0.36,-0.033 0.299,-0.033C0.185,-0.033 0.115,-0.12 0.11,-0.225L0.514,-0.225L0.514,-0.239C0.514,-0.378 0.433,-0.495 0.286,-0.495C0.152,-0.495 0.053,-0.382 0.053,-0.242ZM0.285,-0.45C0.406,-0.45 0.46,-0.348 0.461,-0.266L0.11,-0.266C0.114,-0.35 0.171,-0.45 0.285,-0.45Z" style="fill-rule:nonzero;"/>
                            </g>
                            <g transform="matrix(32,0,0,32,57.792,0)">
                                <path d="M0.656,-0L0.708,-0L0.708,-0.348C0.708,-0.445 0.665,-0.495 0.576,-0.495C0.508,-0.495 0.443,-0.449 0.416,-0.404C0.404,-0.451 0.364,-0.495 0.289,-0.495C0.219,-0.495 0.153,-0.441 0.133,-0.41L0.133,-0.483L0.081,-0.483L0.081,-0L0.133,-0L0.133,-0.365C0.162,-0.409 0.22,-0.448 0.271,-0.448C0.34,-0.448 0.368,-0.406 0.368,-0.338L0.368,-0L0.421,-0L0.421,-0.366C0.448,-0.41 0.507,-0.448 0.559,-0.448C0.627,-0.448 0.656,-0.406 0.656,-0.338L0.656,-0Z" style="fill-rule:nonzero;"/>
                            </g>
                            <g transform="matrix(32,0,0,32,91.328,0)">
                                <path d="M0.046,-0.094C0.097,-0.032 0.18,0.012 0.29,0.012C0.47,0.012 0.527,-0.091 0.527,-0.177C0.527,-0.312 0.409,-0.346 0.301,-0.377C0.21,-0.401 0.127,-0.424 0.127,-0.503C0.127,-0.575 0.194,-0.626 0.283,-0.626C0.358,-0.626 0.426,-0.6 0.474,-0.542L0.512,-0.584C0.46,-0.643 0.386,-0.678 0.286,-0.678C0.165,-0.678 0.067,-0.609 0.067,-0.5C0.067,-0.377 0.179,-0.347 0.284,-0.318C0.378,-0.293 0.467,-0.267 0.467,-0.173C0.467,-0.116 0.428,-0.04 0.291,-0.04C0.196,-0.04 0.126,-0.087 0.083,-0.137L0.046,-0.094Z" style="fill-rule:nonzero;"/>
                            </g>
                            <g transform="matrix(32,0,0,32,109.92,0)">
                                <path d="M0.388,-0L0.44,-0L0.44,-0.34C0.44,-0.448 0.362,-0.495 0.264,-0.495C0.184,-0.495 0.128,-0.468 0.078,-0.414L0.107,-0.378C0.151,-0.428 0.198,-0.449 0.258,-0.449C0.33,-0.449 0.388,-0.41 0.388,-0.338L0.388,-0.24C0.346,-0.287 0.291,-0.309 0.224,-0.309C0.14,-0.309 0.055,-0.254 0.055,-0.149C0.055,-0.045 0.141,0.012 0.224,0.012C0.291,0.012 0.345,-0.01 0.388,-0.057L0.388,-0ZM0.388,-0.095C0.354,-0.051 0.3,-0.029 0.242,-0.029C0.162,-0.029 0.11,-0.08 0.11,-0.148C0.11,-0.217 0.162,-0.268 0.242,-0.268C0.3,-0.268 0.354,-0.245 0.388,-0.201L0.388,-0.095Z" style="fill-rule:nonzero;"/>
                            </g>
                            <g transform="matrix(32,0,0,32,126.592,0)">
                                <path d="M0.133,0.184L0.133,-0.078C0.172,-0.023 0.233,0.012 0.301,0.012C0.43,0.012 0.517,-0.088 0.517,-0.242C0.517,-0.397 0.43,-0.495 0.301,-0.495C0.229,-0.495 0.167,-0.456 0.133,-0.407L0.133,-0.483L0.081,-0.483L0.081,0.184L0.133,0.184ZM0.461,-0.242C0.461,-0.125 0.4,-0.035 0.292,-0.035C0.225,-0.035 0.161,-0.077 0.133,-0.123L0.133,-0.362C0.161,-0.408 0.225,-0.448 0.292,-0.448C0.4,-0.448 0.461,-0.359 0.461,-0.242Z" style="fill-rule:nonzero;"/>
                            </g>
                            <g transform="matrix(32,0,0,32,144.832,0)">
                                <path d="M0.053,-0.242C0.053,-0.093 0.154,0.012 0.295,0.012C0.375,0.012 0.436,-0.016 0.484,-0.066L0.457,-0.1C0.416,-0.056 0.36,-0.033 0.299,-0.033C0.185,-0.033 0.115,-0.12 0.11,-0.225L0.514,-0.225L0.514,-0.239C0.514,-0.378 0.433,-0.495 0.286,-0.495C0.152,-0.495 0.053,-0.382 0.053,-0.242ZM0.285,-0.45C0.406,-0.45 0.46,-0.348 0.461,-0.266L0.11,-0.266C0.114,-0.35 0.171,-0.45 0.285,-0.45Z" style="fill-rule:nonzero;"/>
                            </g>
                            <g transform="matrix(32,0,0,32,162.976,0)">
                                <path d="M0.082,0.123C0.139,0.181 0.191,0.196 0.272,0.196C0.39,0.196 0.49,0.143 0.49,-0.005L0.49,-0.483L0.437,-0.483L0.437,-0.405C0.398,-0.46 0.338,-0.495 0.269,-0.495C0.141,-0.495 0.053,-0.395 0.053,-0.242C0.053,-0.087 0.141,0.01 0.269,0.01C0.341,0.01 0.403,-0.031 0.437,-0.08L0.437,-0.004C0.437,0.107 0.36,0.151 0.272,0.151C0.2,0.151 0.154,0.133 0.112,0.083L0.082,0.123ZM0.437,-0.125C0.409,-0.078 0.345,-0.037 0.278,-0.037C0.171,-0.037 0.109,-0.125 0.109,-0.242C0.109,-0.359 0.171,-0.448 0.278,-0.448C0.345,-0.448 0.409,-0.407 0.437,-0.36L0.437,-0.125Z" style="fill-rule:nonzero;"/>
                            </g>
                            <g transform="matrix(32,0,0,32,181.216,0)">
                                <path d="M0.107,-0.565C0.129,-0.565 0.147,-0.583 0.147,-0.605C0.147,-0.627 0.129,-0.645 0.107,-0.645C0.086,-0.645 0.067,-0.627 0.067,-0.605C0.067,-0.583 0.086,-0.565 0.107,-0.565ZM0.081,-0L0.133,-0L0.133,-0.483L0.081,-0.483L0.081,-0Z" style="fill-rule:nonzero;"/>
                            </g>
                            <g transform="matrix(32,0,0,32,188.064,0)">
                                <path d="M0.407,-0L0.459,-0L0.459,-0.338C0.459,-0.447 0.405,-0.495 0.307,-0.495C0.237,-0.495 0.168,-0.452 0.133,-0.41L0.133,-0.483L0.081,-0.483L0.081,-0L0.133,-0L0.133,-0.365C0.164,-0.409 0.228,-0.448 0.29,-0.448C0.36,-0.448 0.407,-0.42 0.407,-0.327L0.407,-0Z" style="fill-rule:nonzero;"/>
                            </g>
                        </g>
                    </g>
                </g>
            </g>
            <g transform="matrix(1,0,0,1,221.79,88.3583)">
                <g id="Graphic_24">
                    <g>
                        <g>
                            <g transform="matrix(32,0,0,32,0,0)">
                                <path d="M0.02,-0.094C0.083,-0.031 0.175,0.012 0.303,0.012C0.483,0.012 0.57,-0.08 0.57,-0.202C0.57,-0.35 0.43,-0.383 0.32,-0.408C0.243,-0.426 0.187,-0.44 0.187,-0.485C0.187,-0.525 0.221,-0.553 0.285,-0.553C0.35,-0.553 0.422,-0.53 0.476,-0.48L0.555,-0.584C0.489,-0.645 0.401,-0.677 0.295,-0.677C0.138,-0.677 0.042,-0.587 0.042,-0.476C0.042,-0.327 0.182,-0.297 0.291,-0.272C0.368,-0.254 0.426,-0.237 0.426,-0.187C0.426,-0.149 0.388,-0.112 0.31,-0.112C0.218,-0.112 0.145,-0.153 0.098,-0.202L0.02,-0.094Z" style="fill:rgb(40,49,49);fill-rule:nonzero;"/>
                            </g>
                            <g transform="matrix(32,0,0,32,19.2,0)">
                                <path d="M0.066,-0.266C0.066,-0.102 0.161,0.012 0.365,0.012C0.567,0.012 0.662,-0.101 0.662,-0.267L0.662,-0.667L0.518,-0.667L0.518,-0.271C0.518,-0.178 0.467,-0.114 0.365,-0.114C0.261,-0.114 0.21,-0.178 0.21,-0.271L0.21,-0.667L0.066,-0.667L0.066,-0.266Z" style="fill:rgb(40,49,49);fill-rule:nonzero;"/>
                            </g>
                            <g transform="matrix(32,0,0,32,42.496,0)">
                                <path d="M0.443,-0L0.606,-0L0.456,-0.254C0.528,-0.271 0.602,-0.334 0.602,-0.452C0.602,-0.576 0.517,-0.667 0.378,-0.667L0.066,-0.667L0.066,-0L0.208,-0L0.208,-0.239L0.312,-0.239L0.443,-0ZM0.457,-0.453C0.457,-0.397 0.414,-0.361 0.357,-0.361L0.208,-0.361L0.208,-0.545L0.357,-0.545C0.414,-0.545 0.457,-0.509 0.457,-0.453Z" style="fill:rgb(40,49,49);fill-rule:nonzero;"/>
                            </g>
                            <g transform="matrix(32,0,0,32,62.752,0)">
                                <path d="M0.253,-0L0.431,-0L0.688,-0.667L0.526,-0.667L0.342,-0.154L0.157,-0.667L-0.005,-0.667L0.253,-0Z" style="fill:rgb(40,49,49);fill-rule:nonzero;"/>
                            </g>
                            <g transform="matrix(32,0,0,32,84.64,0)">
                                <rect x="0.066" y="-0.667" width="0.142" height="0.667" style="fill:rgb(40,49,49);fill-rule:nonzero;"/>
                            </g>
                            <g transform="matrix(32,0,0,32,93.408,0)">
                                <path d="M0.253,-0L0.431,-0L0.688,-0.667L0.526,-0.667L0.342,-0.154L0.157,-0.667L-0.005,-0.667L0.253,-0Z" style="fill:rgb(40,49,49);fill-rule:nonzero;"/>
                            </g>
                            <g transform="matrix(32,0,0,32,115.296,0)">
                                <path d="M0.066,-0L0.538,-0L0.538,-0.123L0.208,-0.123L0.208,-0.278L0.531,-0.278L0.531,-0.4L0.208,-0.4L0.208,-0.545L0.538,-0.545L0.538,-0.667L0.066,-0.667L0.066,-0Z" style="fill:rgb(40,49,49);fill-rule:nonzero;"/>
                            </g>
                            <g transform="matrix(32,0,0,32,133.952,0)">
                                <path d="M0.006,-0.053C0.054,-0.006 0.117,0.012 0.185,0.012C0.322,0.012 0.42,-0.061 0.42,-0.219L0.42,-0.667L0.278,-0.667L0.278,-0.221C0.278,-0.156 0.237,-0.114 0.174,-0.114C0.128,-0.114 0.094,-0.137 0.068,-0.162L0.006,-0.053Z" style="fill:rgb(0,193,207);fill-rule:nonzero;"/>
                            </g>
                            <g transform="matrix(32,0,0,32,149.504,0)">
                                <path d="M0.02,-0.094C0.083,-0.031 0.175,0.012 0.303,0.012C0.483,0.012 0.57,-0.08 0.57,-0.202C0.57,-0.35 0.43,-0.383 0.32,-0.408C0.243,-0.426 0.187,-0.44 0.187,-0.485C0.187,-0.525 0.221,-0.553 0.285,-0.553C0.35,-0.553 0.422,-0.53 0.476,-0.48L0.555,-0.584C0.489,-0.645 0.401,-0.677 0.295,-0.677C0.138,-0.677 0.042,-0.587 0.042,-0.476C0.042,-0.327 0.182,-0.297 0.291,-0.272C0.368,-0.254 0.426,-0.237 0.426,-0.187C0.426,-0.149 0.388,-0.112 0.31,-0.112C0.218,-0.112 0.145,-0.153 0.098,-0.202L0.02,-0.094Z" style="fill:rgb(0,193,207);fill-rule:nonzero;"/>
                            </g>
                        </g>
                    </g>
                </g>
            </g>
            <g id="Graphic_23">
                <path d="M307.296,306.142C238.409,306.142 182.366,362.092 182.366,430.865C182.366,499.638 238.409,555.591 307.296,555.591C376.183,555.591 432.225,499.638 432.225,430.865C432.225,362.092 376.183,306.142 307.296,306.142M307.296,316.671C370.334,316.671 421.679,367.932 421.679,430.865C421.679,493.8 370.334,545.062 307.296,545.062C244.257,545.062 192.912,493.8 192.912,430.865C192.912,367.932 244.257,316.671 307.296,316.671" style="fill:rgb(43,51,55);fill-rule:nonzero;"/>
            </g>
            <g id="Graphic_22">
                <path d="M203.889,453.188C222.513,444.045 243.152,438.724 263.819,437.839C264.137,440.058 264.771,442.595 265.406,444.814C245.822,452.748 228.033,464.759 213.135,479.895C208.921,471.563 205.768,462.609 203.889,453.188Z" style="fill:rgb(43,51,55);fill-rule:nonzero;"/>
            </g>
            <g id="Graphic_21">
                <path d="M214.823,381.845C235.107,386.873 254.209,395.95 270.805,408.674C269.534,410.575 268.264,412.794 267.311,415.015C247.058,408.749 225.781,406.361 204.631,408.459C206.833,399.041 210.278,390.101 214.823,381.845Z" style="fill:rgb(43,51,55);fill-rule:nonzero;"/>
            </g>
            <g id="Graphic_20">
                <path d="M202.594,444.896C202.115,440.824 201.84,436.689 201.84,432.488C201.84,427.105 202.25,421.819 203.03,416.656C223.791,414.138 244.967,416.426 264.771,422.623C264.771,422.938 264.453,423.574 264.453,423.89C264.137,426.109 263.819,428.012 263.819,429.915C242.519,430.765 221.742,435.705 202.594,444.896Z" style="fill:rgb(43,51,55);fill-rule:nonzero;"/>
            </g>
            <g id="Graphic_19">
                <path d="M237.552,353.536C254.902,365.017 269.738,380.174 280.967,397.576C279.062,399.161 277.157,400.747 275.567,402.332C258.792,389.558 239.461,380.12 219.187,374.637C224.353,366.808 230.537,359.718 237.552,353.536Z" style="fill:rgb(43,51,55);fill-rule:nonzero;"/>
            </g>
            <g id="Graphic_18">
                <path d="M308.55,537.738C302.654,517.76 300.872,496.554 303.829,475.883L306.052,475.883C307.957,475.883 309.545,475.883 311.134,475.565C315.436,496.479 324.445,516.33 336.913,533.534C327.898,536.161 318.39,537.622 308.55,537.738Z" style="fill:rgb(43,51,55);fill-rule:nonzero;"/>
            </g>
            <g id="Graphic_17">
                <path d="M345.044,530.801C332.602,514.035 323.559,494.588 319.072,473.981C321.295,473.347 323.518,472.396 325.741,471.444C337.226,489.504 352.371,505.192 369.951,517.179C362.367,522.781 353.997,527.375 345.044,530.801Z" style="fill:rgb(43,51,55);fill-rule:nonzero;"/>
            </g>
            <g id="Graphic_16">
                <path d="M300.055,537.495C290.411,536.842 281.128,534.903 272.371,531.838C273.683,511.134 279.24,490.841 288.905,472.713C291.128,473.664 293.667,474.298 295.89,474.932C293.051,495.633 294.309,517.086 300.055,537.495Z" style="fill:rgb(43,51,55);fill-rule:nonzero;"/>
            </g>
            <g id="Graphic_15">
                <path d="M265.165,529.015C256.544,525.26 248.525,520.391 241.289,514.585C249.621,495.688 262.152,478.295 277.473,464.469C279.378,466.054 281.283,467.639 283.19,468.908C273.566,487.275 267.5,507.91 265.165,529.015Z" style="fill:rgb(43,51,55);fill-rule:nonzero;"/>
            </g>
            <g id="Graphic_14">
                <path d="M304.762,327.27C310.71,347.31 312.514,368.591 309.545,389.335C307.004,389.335 304.781,389.335 302.243,389.651C297.945,368.773 288.962,348.953 276.526,331.768C285.489,329.044 294.961,327.502 304.762,327.27Z" style="fill:rgb(45,51,55);fill-rule:nonzero;"/>
            </g>
            <g id="Graphic_13">
                <path d="M268.466,334.6C280.84,351.325 289.831,370.703 294.303,391.237C292.08,391.871 289.857,392.822 287.634,393.774C276.25,375.873 261.277,360.295 243.894,348.348C251.369,342.725 259.63,338.094 268.466,334.6Z" style="fill:rgb(45,51,55);fill-rule:nonzero;"/>
            </g>
            <g id="Graphic_12">
                <path d="M313.216,327.38C322.901,327.915 332.227,329.77 341.042,332.739C339.805,353.666 334.235,374.189 324.471,392.504C322.248,391.554 319.707,390.921 317.484,390.285C320.34,369.468 319.043,347.89 313.216,327.38Z" style="fill:rgb(45,51,55);fill-rule:nonzero;"/>
            </g>
            <g id="Graphic_11">
                <path d="M348.825,335.689C357.593,339.442 365.735,344.356 373.087,350.222C364.795,369.153 352.519,386.583 337.173,400.431C335.268,398.846 333.362,397.261 331.455,395.991C341.144,377.502 347.214,356.713 348.825,335.689Z" style="fill:rgb(209,0,26);fill-rule:nonzero;"/>
            </g>
            <g id="Graphic_10">
                <path d="M397.214,377.458C382.832,392.628 365.297,404.502 346.062,412.477C345.111,410.576 343.842,408.357 342.252,406.454C357.871,392.28 370.664,374.797 379.333,355.616C386.221,362.053 392.251,369.39 397.214,377.458Z" style="fill:rgb(209,0,26);fill-rule:nonzero;"/>
            </g>
            <g id="Graphic_9">
                <path d="M399.734,483.19C379.246,478.192 359.951,469.063 343.206,456.228C344.476,454.324 345.745,452.106 346.699,449.887C362.258,454.642 378.135,457.179 394.33,457.179C399.59,457.179 404.842,456.861 409.997,456.363C407.791,465.861 404.32,474.871 399.734,483.19Z" style="fill:rgb(43,51,55);fill-rule:nonzero;"/>
            </g>
            <g id="Graphic_8">
                <path d="M410.669,411.598C391.984,420.813 371.259,426.174 350.509,427.061C350.191,424.842 349.557,422.305 348.921,420.087C368.572,412.124 386.41,400.058 401.338,384.853C405.585,393.191 408.768,402.16 410.669,411.598Z" style="fill:rgb(209,0,26);fill-rule:nonzero;"/>
            </g>
            <g id="Graphic_7">
                <path d="M411.973,419.883C412.467,424.018 412.75,428.219 412.75,432.487C412.75,437.831 412.344,443.08 411.575,448.21C390.724,450.781 369.449,448.502 349.557,442.277C349.557,441.961 349.873,441.328 349.873,441.01C350.191,438.791 350.509,436.888 350.509,434.987C371.898,434.132 392.76,429.149 411.973,419.883Z" style="fill:rgb(43,51,55);fill-rule:nonzero;"/>
            </g>
            <g id="Graphic_6">
                <path d="M376.493,511.912C358.989,500.406 344.029,485.16 332.727,467.64C334.632,466.373 336.538,464.788 338.125,462.885C355.057,475.778 374.596,485.261 395.308,490.485C390.029,498.458 383.688,505.66 376.493,511.912Z" style="fill:rgb(43,51,55);fill-rule:nonzero;"/>
            </g>
            <g id="Graphic_5">
                <path d="M217.113,487.106C231.437,472.097 248.857,460.339 267.947,452.422C268.899,454.325 270.17,456.544 271.757,458.447C256.23,472.539 243.489,489.896 234.822,508.944C228.001,502.496 222.019,495.167 217.113,487.106Z" style="fill:rgb(43,51,55);fill-rule:nonzero;"/>
            </g>
            <g id="Graphic_4">
                <path d="M307.56,398.502C289.634,398.502 274.489,413.624 274.489,431.52C274.489,449.418 289.634,464.539 307.56,464.539C325.486,464.539 340.633,449.418 340.633,431.52C340.633,413.624 325.486,398.502 307.56,398.502M307.56,406.548C321.109,406.548 332.574,417.995 332.574,431.52C332.574,445.047 321.109,456.493 307.56,456.493C294.011,456.493 282.546,445.047 282.546,431.52C282.546,417.995 294.011,406.548 307.56,406.548" style="fill:rgb(209,0,26);fill-rule:nonzero;"/>
            </g>
            <g id="Graphic_3">
                <path d="M307.902,444.183C301.037,444.183 295.229,438.384 295.229,431.53C295.229,424.676 301.037,418.879 307.902,418.879C314.766,418.879 320.574,424.676 320.574,431.53C320.574,438.384 314.766,444.183 307.902,444.183Z" style="fill:rgb(43,51,55);fill-rule:nonzero;"/>
            </g>
        </g>
    </g>
</svg>
